<svg xmlns="http://www.w3.org/2000/svg" viewBox="0 0 1024 1024" width="1024" height="1024">
<defs>
<style>.a{fill:#6d4d42;}</style>
</defs>
<path class="a" d="M735.7906,337.3717c19.2252,1.2817,51.2671-2.5634,51.2671-8.9717,0-10.2534-25.6335-25.6335-44.8587-29.4786-19.2251-2.5632-47.4219,0-48.7036,10.2535C690.9321,319.4282,708.8755,336.09,735.7906,337.3717Zm-16.6618-23.07c7.69-7.69,21.7885-7.69,30.76,0a6.1948,6.1948,0,0,1,0,8.9717c-1.2817,1.2816-2.5634,2.5634-5.1268,2.5634a9.7169,9.7169,0,0,1-5.1267-2.5634c-2.5633-2.5633-8.9717-2.5633-11.5351,0a6.3439,6.3439,0,1,1-8.9717-8.9717Z"/>
<path class="a" d="M589.68,409.1456c-15.38,16.6617-35.8869,29.4785-56.3936,42.2952-10.2534,6.4084-20.5068,12.8168-29.4785,19.2252-41.0137,28.1968-64.0838,60.2387-69.21,93.5622-1.2817,7.69,3.845,14.0985,11.5351,15.38h2.5634c6.4083,0,11.5351-5.1267,12.8167-11.5351,3.845-26.9152,23.07-51.267,57.6753-75.6189,8.9718-6.4083,19.2252-11.535,28.1969-17.9434,20.5068-14.0984,43.5769-26.9151,61.52-46.14,5.1268-5.1267,5.1268-12.8167,0-19.225A13.9382,13.9382,0,0,0,589.68,409.1456Z"/>
<path class="a" d="M896,0H128A128,128,0,0,0,0,128V896a128,128,0,0,0,128,128H896a128,128,0,0,0,128-128V128A128,128,0,0,0,896,0Zm-2.5632,557.82c-2.5634,3.8451-6.4084,5.1268-10.2535,5.1268-28.1968-1.2817-39.7318,5.1267-56.3936,11.535-17.9435,8.9717-39.732,17.9435-84.5905,17.9435-38.45,0-66.6471-12.8167-85.8722-29.4785l3.845,70.4921c0,33.3235-7.69,62.802-23.07,85.8722,24.3518,7.69,66.6471,21.7885,82.0272,37.1686,3.845,2.5633,5.1267,7.69,3.845,12.8167s-5.1267,7.69-10.2534,8.9717c-1.2817,0-16.6618,2.5634-51.267,2.5634-12.8168,0-29.4785,0-47.422-1.2817-17.9434,0-33.3235-5.1267-46.14-10.2534-7.69,1.2816-15.38,2.5633-23.07,2.5633a100.523,100.523,0,0,1-42.2952-8.9717c-12.8168-5.1267-24.3518-12.8168-35.8869-21.7885-42.2953,17.9435-85.8722,28.1969-128.1675,33.3236-15.38,1.2816-32.0419,2.5633-49.9853,2.5633-34.6052,0-71.7738-3.8451-105.0974-17.9435-24.3518-10.2534-51.267-32.0419-55.112-61.52-2.5633-26.9152,12.8168-49.9853,39.7319-61.52,28.1968-11.535,53.83,3.845,74.3372,15.38,3.845,2.5633,7.69,3.845,11.535,6.4084,42.2952,21.7884,102.5339,21.7884,152.5193,1.2816a137.5345,137.5345,0,0,1-11.5351-43.5769c-7.69-71.7738,29.4786-144.8293,94.8439-184.5612,8.9718-6.4084,19.2252-11.5351,28.1969-16.6618,23.07-11.5351,43.5769-24.3518,62.8021-41.0136q32.6826-30.76,53.83-57.6753,5.7675-7.69,11.5351-15.38c-5.1267-17.9434-7.69-41.0136,12.8167-55.112a13.8847,13.8847,0,0,1,14.0985,0c2.5633,1.2816,17.9434,10.2533,29.4784,23.07a99.9538,99.9538,0,0,1,28.1969-3.845c21.7884,0,42.2951,5.1267,60.2386,16.6617,8.9717,5.1267,15.38,12.8168,21.7885,19.2252l6.4083,6.4083c1.2817,1.2817,3.8451,2.5634,5.1268,3.845,3.845,2.5634,7.69,6.4084,12.8167,8.9718,20.5067,14.0984,46.14,33.3235,46.14,64.0837,0,48.7036-106.3789,52.5487-117.914,52.5487H755.0158c-21.7884,0-46.14-1.2817-67.9288-10.2534-5.1267,3.845-11.5351,10.2534-11.5351,14.0984-1.2816,3.845,2.5634,17.9434,16.6618,33.3235,14.0984,14.0984,39.7319,32.0419,88.4356,32.0419,98.6889,0,112.7874,28.1968,115.3507,37.1685A38.1007,38.1007,0,0,1,893.4368,557.82Z"/>
</svg>